<?xml version="1.0" encoding="UTF-8" standalone="no"?>
<!-- Created with Inkscape (http://www.inkscape.org/) -->

<svg
   width="7.9836488in"
   height="7.1409631in"
   viewBox="0 0 766.43028 685.53246"
   version="1.1"
   id="svg1"
   sodipodi:docname="Air.svg"
   inkscape:version="1.3.2 (091e20e, 2023-11-25, custom)"
   xmlns:inkscape="http://www.inkscape.org/namespaces/inkscape"
   xmlns:sodipodi="http://sodipodi.sourceforge.net/DTD/sodipodi-0.dtd"
   xmlns="http://www.w3.org/2000/svg"
   xmlns:svg="http://www.w3.org/2000/svg">
  <sodipodi:namedview
     id="namedview1"
     pagecolor="#505050"
     bordercolor="#eeeeee"
     borderopacity="1"
     inkscape:showpageshadow="0"
     inkscape:pageopacity="0"
     inkscape:pagecheckerboard="0"
     inkscape:deskcolor="#505050"
     inkscape:document-units="in"
     inkscape:zoom="1.1917744"
     inkscape:cx="383.04231"
     inkscape:cy="342.76623"
     inkscape:window-width="1920"
     inkscape:window-height="1094"
     inkscape:window-x="-11"
     inkscape:window-y="-11"
     inkscape:window-maximized="1"
     inkscape:current-layer="layer4" />
  <defs
     id="defs1">
    <linearGradient
       id="swatch10">
      <stop
         style="stop-color:#000000;stop-opacity:0;"
         offset="0"
         id="stop10" />
    </linearGradient>
  </defs>
  <g
     id="layer4"
     style="display:inline"
     transform="translate(-144.78485,-65.233749)"
     inkscape:label="Air"
     inkscape:highlight-color="#808080">
    <path
       id="path1-7-1-8"
       style="display:inline;fill:none;fill-rule:evenodd;stroke:#808080;stroke-width:16.4349;stroke-linecap:butt;stroke-dasharray:none;stroke-opacity:1"
       d="m 743.49815,488.79246 c -21.27327,5.59508 -41.16929,-11.24419 -45.33579,-31.52875 -6.04632,-29.43653 17.25757,-56.12899 45.53,-60.88898 38.41318,-6.46729 72.61148,24.04519 77.90021,61.14837 6.86197,48.14012 -31.52838,90.48533 -78.23099,96.25379 -58.5655,7.23368 -109.64846,-39.64836 -115.85785,-96.66167 -7.58529,-69.64649 48.35913,-130.01849 116.34813,-136.63722 81.34691,-7.91912 151.52716,57.62338 158.52879,137.21488 8.23711,93.63596 -67.41002,174.11669 -159.19853,181.4787 -39.20902,3.14481 -78.90842,-6.71502 -112.38477,-27.28608 M 312.50185,326.36324 c 21.27326,-5.59508 41.16928,11.2442 45.33579,31.52874 6.04632,29.43653 -17.25757,56.12901 -45.53001,60.88899 -38.41319,6.4673 -72.61147,-24.04519 -77.90021,-61.14837 -6.86196,-48.14011 31.52838,-90.48534 78.23099,-96.25379 58.56551,-7.23369 109.64846,39.64836 115.85785,96.66167 7.5853,69.64648 -48.35912,130.01848 -116.34813,136.63721 -81.34691,7.91912 -151.52716,-57.62337 -158.52879,-137.21486 -8.23711,-93.63597 67.41002,-174.11671 159.19853,-181.47872 39.20902,-3.1448 78.90842,6.71503 112.38478,27.28609 m 66.73501,367.68193 c 15.62565,-15.48212 41.27573,-10.8469 55.02632,4.63678 19.95453,22.46962 13.11899,57.23793 -8.98565,75.49641 -30.03315,24.80743 -74.90598,15.48198 -98.03776,-14.00594 -30.01268,-38.25957 -17.93829,-94.12678 19.62314,-122.47372 47.10237,-35.54732 114.78253,-20.48774 148.66668,25.78254 41.39231,56.52297 23.12901,136.77886 -32.44184,176.50535 -66.48893,47.53162 -160.03805,25.86028 -205.89738,-39.56716 -53.95153,-76.97255 -28.67957,-184.49451 47.13061,-236.76443 32.38361,-22.328 71.69419,-33.63883 110.97111,-32.56195 M 564.04811,245.0479 c -15.62564,15.4821 -41.27573,10.84689 -55.02631,-4.63682 -19.95453,-22.4696 -13.119,-57.23792 8.98564,-75.4964 30.03315,-24.80743 74.90599,-15.48197 98.03776,14.00594 30.01268,38.25958 17.93829,94.12678 -19.62314,122.47372 -47.10237,35.54732 -114.78253,20.48775 -148.66668,-25.78253 -41.39229,-56.52297 -23.12899,-136.77887 32.44184,-176.505361 66.48892,-47.531617 160.03805,-25.86028 205.89739,39.567161 53.95153,76.97257 28.67956,184.4945 -47.13061,236.76445 -32.38361,22.32799 -71.69421,33.63882 -110.97111,32.56195" />
  </g>
</svg>
