<?xml version="1.0" encoding="UTF-8" standalone="no"?>
<!-- Created with Inkscape (http://www.inkscape.org/) -->

<svg
   width="18"
   height="24"
   viewBox="0 0 18 24"
   version="1.1"
   id="svg1"
   xmlns:xlink="http://www.w3.org/1999/xlink"
   xmlns="http://www.w3.org/2000/svg"
   xmlns:svg="http://www.w3.org/2000/svg">
  <defs
     id="defs1">
    <linearGradient
       id="linearGradient47">
      <stop
         style="stop-color:#ffffff;stop-opacity:1;"
         offset="0"
         id="stop47" />
      <stop
         style="stop-color:#00c81e;stop-opacity:1;"
         offset="1"
         id="stop48" />
    </linearGradient>
    <linearGradient
       xlink:href="#linearGradient47"
       id="linearGradient48"
       x1="-0.5"
       y1="1.5"
       x2="31.5"
       y2="33.5"
       gradientUnits="userSpaceOnUse"
       gradientTransform="translate(0.5,-1.5)" />
  </defs>
  <g
     id="layer5"
     style="display:inline"
     transform="translate(-7,-4)">
    <path
       id="rect47"
       style="fill:url(#linearGradient48);stroke:#404040;stroke-linecap:round;stroke-linejoin:round;stroke-miterlimit:3;stroke-opacity:1"
       d="m 9.5,17.5 h 4 c 1.108,0 2,0.892 2,2 v 6 c 0,1.108 -0.892,2 -2,2 h -4 c -1.108,0 -2,-0.892 -2,-2 v -6 c 0,-1.108 0.892,-2 2,-2 z m 9,-2 h 4 c 1.108,0 2,0.892 2,2 v 8 c 0,1.108 -0.892,2 -2,2 h -4 c -1.108,0 -2,-0.892 -2,-2 v -8 c 0,-1.108 0.892,-2 2,-2 z m -9,-11 h 4 c 1.108,0 2,0.892 2,2 v 8 c 0,1.108 -0.892,2 -2,2 h -4 c -1.108,0 -2,-0.892 -2,-2 v -8 c 0,-1.108 0.892,-2 2,-2 z m 9,0 h 4 c 1.108,0 2,0.892 2,2 v 6 c 0,1.108 -0.892,2 -2,2 h -4 c -1.108,0 -2,-0.892 -2,-2 v -6 c 0,-1.108 0.892,-2 2,-2 z" />
  </g>
</svg>
