<?xml version="1.0" encoding="UTF-8" standalone="no"?>
<!-- Created with Inkscape (http://www.inkscape.org/) -->

<svg
   width="5.9244781in"
   height="7.1136475in"
   viewBox="0 0 568.74989 682.91016"
   version="1.1"
   id="svg1"
   sodipodi:docname="Fire.svg"
   inkscape:version="1.3.2 (091e20e, 2023-11-25, custom)"
   xmlns:inkscape="http://www.inkscape.org/namespaces/inkscape"
   xmlns:sodipodi="http://sodipodi.sourceforge.net/DTD/sodipodi-0.dtd"
   xmlns="http://www.w3.org/2000/svg"
   xmlns:svg="http://www.w3.org/2000/svg">
  <sodipodi:namedview
     id="namedview1"
     pagecolor="#505050"
     bordercolor="#eeeeee"
     borderopacity="1"
     inkscape:showpageshadow="0"
     inkscape:pageopacity="0"
     inkscape:pagecheckerboard="0"
     inkscape:deskcolor="#505050"
     inkscape:document-units="in"
     inkscape:zoom="1.1963506"
     inkscape:cx="284.61555"
     inkscape:cy="341.45508"
     inkscape:window-width="1920"
     inkscape:window-height="1094"
     inkscape:window-x="-11"
     inkscape:window-y="-11"
     inkscape:window-maximized="1"
     inkscape:current-layer="layer3" />
  <defs
     id="defs1">
    <linearGradient
       id="swatch10">
      <stop
         style="stop-color:#000000;stop-opacity:0;"
         offset="0"
         id="stop10" />
    </linearGradient>
  </defs>
  <g
     id="layer3"
     style="display:inline"
     transform="translate(-243.62505,-66.544922)"
     inkscape:label="Fire"
     inkscape:highlight-color="#cc0000">
    <path
       id="path32-0"
       style="display:none;fill:none;fill-opacity:0;stroke:#fc0000;stroke-width:19.2;stroke-linecap:round;stroke-linejoin:miter;stroke-dasharray:none;stroke-opacity:1;paint-order:normal"
       d="M 399.65173,227.30145 C 541.9368,182.15255 460.11999,81.815738 460.11999,81.815738 605.87418,135.49008 685.24169,278.15082 614.34907,369.96219 731.65366,290.82112 676.49831,210.35166 676.49831,210.35166 954.81396,344.44565 869.63754,703.9435 529.48977,734.18803 640.83025,723.45014 746.80587,548.37162 635.19325,449.48942 c 0,0 -14.37726,101.2218 -170.8815,105.94221 145.75419,-72.03662 137.00359,-182.20424 20.91153,-241.52851 0,0 14.28777,93.86924 -101.43025,121.4735 C 285.37047,458.85509 259.2422,586.89148 330.04779,678.31772 114.20967,486.06159 232.29867,280.40474 399.65173,227.30145 Z" />
    <path
       id="rect3"
       style="font-variation-settings:normal;display:inline;opacity:1;fill:none;fill-opacity:1;stroke:#cc0000;stroke-width:19.2;stroke-linecap:butt;stroke-linejoin:miter;stroke-miterlimit:4;stroke-dasharray:none;stroke-dashoffset:0;stroke-opacity:1;stop-color:#000000;stop-opacity:1"
       d="m 323.45948,587.44952 c -93.72641,-93.72592 -93.72641,-245.68618 -10e-6,-339.41211 l 171.49414,171.49414 c -93.72509,-93.7257 -93.72509,-245.68445 0,-339.410158 L 732.5415,317.70929 c 93.7251,93.7257 93.7251,245.68445 0,339.41015 l -82.40062,85.54744 c 46.57551,-46.57581 46.57551,-122.08981 0,-168.66563 L 532.07455,455.93494 c -46.57551,46.5758 -46.57551,122.0898 0,168.66561 l -85.22186,-85.22186 c -46.57617,46.57593 -46.57617,122.09067 0,168.6666 z" />
  </g>
</svg>
