<?xml version="1.0" encoding="UTF-8" standalone="no"?>
<!-- Created with Inkscape (http://www.inkscape.org/) -->

<svg
   width="9.8890371in"
   height="6.5220046in"
   viewBox="0 0 949.34756 626.11244"
   version="1.1"
   id="svg1"
   sodipodi:docname="Water.svg"
   inkscape:version="1.3.2 (091e20e, 2023-11-25, custom)"
   xmlns:inkscape="http://www.inkscape.org/namespaces/inkscape"
   xmlns:sodipodi="http://sodipodi.sourceforge.net/DTD/sodipodi-0.dtd"
   xmlns="http://www.w3.org/2000/svg"
   xmlns:svg="http://www.w3.org/2000/svg">
  <sodipodi:namedview
     id="namedview1"
     pagecolor="#505050"
     bordercolor="#eeeeee"
     borderopacity="1"
     inkscape:showpageshadow="0"
     inkscape:pageopacity="0"
     inkscape:pagecheckerboard="0"
     inkscape:deskcolor="#505050"
     inkscape:document-units="in"
     inkscape:zoom="0.66677371"
     inkscape:cx="474.67378"
     inkscape:cy="312.69979"
     inkscape:window-width="1920"
     inkscape:window-height="1094"
     inkscape:window-x="-11"
     inkscape:window-y="-11"
     inkscape:window-maximized="1"
     inkscape:current-layer="layer1" />
  <defs
     id="defs1">
    <linearGradient
       id="swatch10">
      <stop
         style="stop-color:#000000;stop-opacity:0;"
         offset="0"
         id="stop10" />
    </linearGradient>
  </defs>
  <g
     id="layer1"
     style="display:inline"
     transform="translate(-54.436062,-94.943787)"
     inkscape:label="Water"
     inkscape:highlight-color="#4120df">
    <path
       id="path7"
       style="font-variation-settings:normal;opacity:1;fill:none;fill-opacity:1;stroke:#4120df;stroke-width:19.2;stroke-linecap:butt;stroke-linejoin:miter;stroke-miterlimit:4;stroke-dasharray:none;stroke-dashoffset:0;stroke-opacity:1"
       d="m 613.27272,593.26642 c 80.30192,35.05109 193.62951,-159.72822 374.87602,-55.08551 -72.12971,72.12973 -107.66577,86.8647 -153.19303,115.31924 -45.52725,28.45454 -156.61916,57.95606 -285.3897,57.95606 -268.15078,0 -485.529946,-135.86197 -485.529946,-303.45622 0,-167.59424 217.379166,-303.4562 485.529946,-303.4562 128.77054,0 243.34301,37.11124 301.03508,66.24792 57.69205,29.13669 100.47533,88.95978 78.64067,148.31579 -18.52805,50.36721 -75.67221,80.58414 -126.9668,60.83583 -42.35253,-16.30565 -67.72534,-65.04302 -50.03779,-108.26406 14.05561,-34.34609 54.43639,-54.91003 89.56132,-39.23975 26.3534,11.75701 42.17724,43.87878 28.44174,70.85857 -9.35954,18.38437 -33.45695,29.62828 -52.15586,17.6437 m -190.12819,34.53903 c -160.79445,0 -138.06276,298.01933 206.99953,298.01933 M 444.23524,265.86735 c 22.186,1.0295 37.433,-20.75671 36.34646,-41.35779 -1.59459,-30.23294 -31.35933,-50.13931 -60.06054,-47.1445 -38.2542,3.9916 -62.94303,41.99086 -57.94253,78.76325 6.29263,46.27431 52.6348,75.79572 97.466,68.74057 54.29657,-8.54473 88.67643,-63.28542 79.5386,-116.16872 -10.76862,-62.32115 -73.94015,-101.57471 -134.87146,-90.33664 m 223.24441,166.55849 c 24.44676,7.78164 47.97237,-11.96841 52.91911,-35.2794 7.25955,-34.2098 -19.99973,-65.31954 -52.91911,-70.5588 -43.87636,-6.98315 -82.7841,28.03416 -88.19849,70.5588 -6.81349,53.51289 36.06781,100.30696 88.19849,105.83821 63.13724,6.69906 117.86314,-44.10055 123.47793,-105.83821 6.61681,-72.7557 -52.1326,-135.44013 -123.47793,-141.11762" />
  </g>
</svg>
